<svg width="289" height="289" viewBox="0 0 289 289" fill="none" xmlns="http://www.w3.org/2000/svg">
<g clip-path="url(#clip0_93_3513)">
<path fill-rule="evenodd" clip-rule="evenodd" d="M144.5 288.5C224.029 288.5 288.5 224.029 288.5 144.5C288.5 64.971 224.029 0.5 144.5 0.5C64.971 0.5 0.5 64.971 0.5 144.5C0.5 224.029 64.971 288.5 144.5 288.5Z" fill="#0A2C5C"/>
<path fill-rule="evenodd" clip-rule="evenodd" d="M144.494 48.5C91.484 48.5 48.5 91.6484 48.5 144.887C48.5 187.463 76.004 223.587 114.158 236.334C118.958 237.219 120.71 234.243 120.71 231.689C120.71 229.4 120.626 223.34 120.578 215.299C93.872 221.124 88.238 202.378 88.238 202.378C83.876 191.246 77.582 188.282 77.582 188.282C68.864 182.3 78.242 182.421 78.242 182.421C87.872 183.101 92.942 192.354 92.942 192.354C101.51 207.082 115.412 202.829 120.884 200.36C121.754 194.131 124.238 189.884 126.98 187.475C105.662 185.041 83.252 176.776 83.252 139.845C83.252 129.321 86.99 120.719 93.134 113.979C92.144 111.539 88.85 101.744 94.07 88.4738C94.07 88.4738 102.134 85.8836 120.47 98.3528C128.132 96.2144 136.34 95.1482 144.506 95.106C152.66 95.1482 160.874 96.2144 168.542 98.3528C186.866 85.8836 194.912 88.4738 194.912 88.4738C200.15 101.744 196.856 111.539 195.866 113.979C202.022 120.719 205.736 129.321 205.736 139.845C205.736 176.867 183.29 185.017 161.906 187.402C165.35 190.378 168.422 196.257 168.422 205.251C168.422 218.136 168.302 228.527 168.302 231.689C168.302 234.268 170.03 237.267 174.902 236.322C213.02 223.551 240.5 187.451 240.5 144.887C240.5 91.6484 197.516 48.5 144.494 48.5Z" fill="white"/>
</g>
<defs>
<linearGradient id="paint0_linear_93_3513" x1="144.5" y1="48.5" x2="144.5" y2="236.5" gradientUnits="userSpaceOnUse">
<stop stop-color="#FFF9E7"/>
<stop offset="1" stop-color="#C7D5E3"/>
</linearGradient>
<clipPath id="clip0_93_3513">
<rect width="288" height="288" fill="currentcolor" transform="translate(0.5 0.5)"/>
</clipPath>
</defs>
</svg>
