<svg width="40" height="40" viewBox="0 0 40 40" fill="none" xmlns="http://www.w3.org/2000/svg">
<path d="M5.14528 15H34.856C35.7765 15 36.5227 15.7462 36.5227 16.6667C36.5227 16.7128 36.5207 16.759 36.5168 16.805L35.128 33.4717C35.056 34.3355 34.3338 35 33.467 35H6.53416C5.66735 35 4.94525 34.3355 4.87326 33.4717L3.48436 16.805C3.40793 15.8878 4.08958 15.0822 5.00686 15.0058C5.05291 15.0019 5.09908 15 5.14528 15ZM8.06773 31.6667H31.9335L33.0447 18.3333H6.95661L8.06773 31.6667ZM22.3577 8.33333H33.334C34.2545 8.33333 35.0007 9.07953 35.0007 10V11.6667H5.00061V6.66667C5.00061 5.7462 5.74681 5 6.66728 5H19.0243L22.3577 8.33333Z" fill="currentcolor"/>
</svg>
