<svg width="40" height="40" viewBox="0 0 40 40" fill="none" xmlns="http://www.w3.org/2000/svg">
<path fill-rule="evenodd" clip-rule="evenodd" d="M8.46191 9.87754C8.46191 7.3152 10.5666 5.23804 13.1628 5.23804H20.0004C20.7084 5.23804 21.2824 5.80454 21.2824 6.50335C21.2824 7.20217 20.7084 7.76867 20.0004 7.76867H13.1628C11.9827 7.76867 11.026 8.71284 11.026 9.87754V11.5646C11.026 12.2634 10.452 12.8299 9.74396 12.8299C9.03591 12.8299 8.46191 12.2634 8.46191 11.5646V9.87754ZM9.74396 27.1702C10.452 27.1702 11.026 27.7367 11.026 28.4356V30.1226C11.026 31.2872 11.9827 32.2314 13.1628 32.2314H20.0004C20.7084 32.2314 21.2824 32.7981 21.2824 33.4967C21.2824 34.1956 20.7084 34.7621 20.0004 34.7621H13.1628C10.5666 34.7621 8.46191 32.6849 8.46191 30.1226V28.4356C8.46191 27.7367 9.03591 27.1702 9.74396 27.1702Z" fill="currentcolor"/>
<path fill-rule="evenodd" clip-rule="evenodd" d="M21.2818 7.97689C21.2818 6.5081 22.7651 5.48917 24.1608 5.99929L32.7078 9.12352C33.5459 9.42992 34.1023 10.2189 34.1023 11.1011V28.8988C34.1023 29.7809 33.5459 30.5699 32.7078 30.8763L24.1608 34.0006C22.7651 34.5108 21.2818 33.4918 21.2818 32.0229V7.97689ZM25.0513 3.62619C21.9809 2.50392 18.7178 4.74555 18.7178 7.97689V32.0229C18.7178 35.2543 21.9809 37.4959 25.0513 36.3736L33.5983 33.2494C35.4424 32.5753 36.6664 30.8396 36.6664 28.8988V11.1011C36.6664 9.16025 35.4424 7.4245 33.5983 6.75042L25.0513 3.62619Z" fill="currentcolor"/>
<path fill-rule="evenodd" clip-rule="evenodd" d="M10.5461 15.7312C11.0468 15.2371 11.8585 15.2371 12.3592 15.7312L15.778 19.1054C16.2787 19.5996 16.2787 20.4006 15.778 20.8948L12.3592 24.2689C11.8585 24.7631 11.0468 24.7631 10.5461 24.2689C10.0454 23.7749 10.0454 22.9738 10.5461 22.4796L11.7763 21.2654H4.61506C3.90701 21.2654 3.33301 20.6989 3.33301 20.0001C3.33301 19.3013 3.90701 18.7348 4.61506 18.7348H11.7763L10.5461 17.5206C10.0454 17.0264 10.0454 16.2253 10.5461 15.7312Z" fill="currentcolor"/>
</svg>
